<svg data-v-fde0c5aa="" xmlns="http://www.w3.org/2000/svg" viewBox="0 0 300 300" class="iconAboveSlogan"><!----><defs data-v-fde0c5aa=""><!----></defs><rect data-v-fde0c5aa="" fill="#D9ECFF" x="0" y="0" width="300px" height="300px" class="logo-background-square"></rect><defs data-v-fde0c5aa=""><!----></defs><g data-v-fde0c5aa="" id="e871f7a4-8f1a-4485-a11a-70368c49017e" fill="#007bff" transform="matrix(5.511903285980225,0,0,5.511903285980225,17.244048360357446,134.4976476738337)"><path d="M7.18 5.67C6.03 5.60 3.92 5.46 3.81 5.46C3.70 5.46 1.64 5.66 0.60 5.78C0.60 6.19 0.50 6.96 0.50 7.06C0.50 7.17 0.63 11.28 0.67 13.36C0.67 13.79 0.53 14.62 0.56 15.02C0.60 15.06 0.62 15.12 0.69 15.16L7.11 15.16L7.11 14.92C7.11 14.81 7 14.70 6.99 14.60C6.96 14.34 6.97 14.03 6.92 13.83C6.75 13.79 6.55 13.73 6.41 13.73C4.44 13.65 3.58 13.73 3.47 13.73C3.39 13.73 2.35 13.65 2.17 13.48C2.55 10.79 1.88 11.03 4.07 11.03C4.19 11.03 5.42 11.21 5.53 11.21L6.87 11.21C7.06 11.09 7.07 10.54 7.07 10.35C7.07 10.23 7.07 9.87 7.01 9.67L7.06 9.62C5.88 9.67 5.04 9.69 4.93 9.69C4.82 9.69 3.74 9.60 3.63 9.60C3.51 9.60 2.58 9.73 2.46 9.73C2.38 9.73 2.13 9.59 2.13 9.42C2.13 9.31 2.21 9.25 2.21 9.17C2.23 8.61 2.23 7.83 2.34 7.27C3.07 7.04 3.19 7.08 3.70 7.08L6.44 7.17C7.48 7.17 7.13 6.97 7.18 5.67ZM16.80 5.56C16.70 5.50 16.59 5.45 16.48 5.45C16.06 5.45 14.92 5.43 14.81 5.57C13.50 7.07 13.03 8.06 12.38 8.85C11.75 8.04 11.10 7.28 10.54 6.45C10.37 6.20 10.22 5.68 10.12 5.59C9.95 5.45 9.51 5.50 9.41 5.50C9.30 5.50 8.60 5.63 8.48 5.63C8.36 5.63 8.27 5.64 8.05 5.61C8.43 6.24 8.86 7.27 9.24 7.62C10.21 8.47 11.07 9.90 11.61 10.98C11.69 11.13 11.62 11.35 11.61 11.47C11.58 11.90 11.72 12.47 11.72 12.78C11.72 12.89 11.62 13.30 11.63 13.43L11.63 15.11L13.12 15.11C13.20 14.88 13.22 14.56 13.22 14.46C13.22 14.35 13.03 11.33 13.03 11.21C13.03 11.09 13.02 10.75 13.09 10.61C13.57 9.66 16.80 6.01 16.80 5.75ZM24.32 5.67C23.17 5.60 21.06 5.46 20.94 5.46C20.83 5.46 18.77 5.66 17.74 5.78C17.74 6.19 17.64 6.96 17.64 7.06C17.64 7.17 17.77 11.28 17.81 13.36C17.81 13.79 17.67 14.62 17.70 15.02C17.74 15.06 17.75 15.12 17.82 15.16L24.25 15.16L24.25 14.92C24.25 14.81 24.14 14.70 24.12 14.60C24.09 14.34 24.11 14.03 24.05 13.83C23.88 13.79 23.69 13.73 23.55 13.73C21.57 13.65 20.72 13.73 20.61 13.73C20.52 13.73 19.49 13.65 19.31 13.48C19.68 10.79 19.01 11.03 21.21 11.03C21.32 11.03 22.55 11.21 22.67 11.21L24.01 11.21C24.19 11.09 24.21 10.54 24.21 10.35C24.21 10.23 24.21 9.87 24.15 9.67L24.19 9.62C23.02 9.67 22.18 9.69 22.06 9.69C21.95 9.69 20.87 9.60 20.76 9.60C20.65 9.60 19.71 9.73 19.60 9.73C19.52 9.73 19.26 9.59 19.26 9.42C19.26 9.31 19.35 9.25 19.35 9.17C19.36 8.61 19.36 7.83 19.47 7.27C20.20 7.04 20.33 7.08 20.83 7.08L23.58 7.17C24.61 7.17 24.26 6.97 24.32 5.67ZM30.76 9.62C30.76 9.72 30.65 10.21 30.65 10.46C30.65 11.30 30.45 11.87 29.85 12.43C29.29 12.95 28.27 13.37 27.08 13.45C27.05 13.10 26.89 8.60 26.89 7.94C26.89 7.84 26.99 7.32 27.09 6.99C28.29 7.38 29.76 7.52 30.56 8.57C30.74 8.81 30.76 9.34 30.76 9.62ZM32.41 10.71C32.41 8.34 31.26 6.16 27.89 5.70C27.38 5.63 26.53 5.40 25.62 5.40C25.51 5.40 25.47 5.46 25.44 5.50C25.33 6.09 25.20 7.20 25.20 7.29C25.20 7.41 25.51 11.28 25.51 11.40C25.51 13.51 25.24 14.31 25.24 14.56L25.24 15.06L27.79 15.06C27.90 15.06 28.92 14.78 29.27 14.69C32.14 13.90 32.41 12.46 32.41 10.71ZM39.96 5.67C38.81 5.60 36.69 5.46 36.58 5.46C36.47 5.46 34.41 5.66 33.38 5.78C33.38 6.19 33.28 6.96 33.28 7.06C33.28 7.17 33.40 11.28 33.45 13.36C33.45 13.79 33.31 14.62 33.33 15.02C33.38 15.06 33.39 15.12 33.46 15.16L39.89 15.16L39.89 14.92C39.89 14.81 39.77 14.70 39.76 14.60C39.73 14.34 39.75 14.03 39.69 13.83C39.52 13.79 39.33 13.73 39.19 13.73C37.21 13.65 36.36 13.73 36.25 13.73C36.16 13.73 35.13 13.65 34.94 13.48C35.32 10.79 34.65 11.03 36.85 11.03C36.96 11.03 38.19 11.21 38.30 11.21L39.65 11.21C39.83 11.09 39.84 10.54 39.84 10.35C39.84 10.23 39.84 9.87 39.79 9.67L39.83 9.62C38.65 9.67 37.81 9.69 37.70 9.69C37.59 9.69 36.51 9.60 36.40 9.60C36.29 9.60 35.35 9.73 35.24 9.73C35.15 9.73 34.90 9.59 34.90 9.42C34.90 9.31 34.99 9.25 34.99 9.17C35 8.61 35 7.83 35.11 7.27C35.84 7.04 35.97 7.08 36.47 7.08L39.21 7.17C40.25 7.17 39.90 6.97 39.96 5.67ZM47.66 5.67C46.51 5.60 44.39 5.46 44.28 5.46C44.17 5.46 42.11 5.66 41.08 5.78C41.08 6.19 40.98 6.96 40.98 7.06C40.98 7.17 41.10 11.28 41.15 13.36C41.15 13.79 41.01 14.62 41.03 15.02C41.08 15.06 41.09 15.12 41.16 15.16L47.59 15.16L47.59 14.92C47.59 14.81 47.47 14.70 47.46 14.60C47.43 14.34 47.45 14.03 47.39 13.83C47.22 13.79 47.03 13.73 46.89 13.73C44.91 13.65 44.06 13.73 43.95 13.73C43.86 13.73 42.83 13.65 42.64 13.48C43.02 10.79 42.35 11.03 44.55 11.03C44.66 11.03 45.89 11.21 46.00 11.21L47.35 11.21C47.53 11.09 47.54 10.54 47.54 10.35C47.54 10.23 47.54 9.87 47.49 9.67L47.53 9.62C46.35 9.67 45.51 9.69 45.40 9.69C45.29 9.69 44.21 9.60 44.10 9.60C43.99 9.60 43.05 9.73 42.94 9.73C42.85 9.73 42.60 9.59 42.60 9.42C42.60 9.31 42.69 9.25 42.69 9.17C42.70 8.61 42.70 7.83 42.81 7.27C43.54 7.04 43.67 7.08 44.17 7.08L46.91 7.17C47.95 7.17 47.60 6.97 47.66 5.67Z"></path></g><defs data-v-fde0c5aa=""><linearGradient data-v-fde0c5aa="" gradientTransform="rotate(25)" id="b06a09c1-3193-4655-b152-0adc6237b7f5" x1="0%" y1="0%" x2="100%" y2="0%"><stop data-v-fde0c5aa="" offset="0%" stop-color="#007bff" stop-opacity="1"></stop><stop data-v-fde0c5aa="" offset="100%" stop-color="#06687D" stop-opacity="1"></stop></linearGradient></defs><g data-v-fde0c5aa="" id="9378a965-863e-4f2e-bf79-1fb02bb06585" stroke="none" fill="url(#b06a09c1-3193-4655-b152-0adc6237b7f5)" transform="matrix(1.4676743745803833,0,0,1.4676743745803833,112.05821017937758,65.5398369599138)"><path d="M33.3 33.1h-.7c-.4 0-.6.3-.7.6-.3 3.1-2.9 5.5-6.1 5.5-3.2 0-5.8-2.4-6.1-5.5 0-.3-.3-.6-.7-.6h-.7c-.4 0-.7.3-.7.7.4 4.2 3.8 7.4 8.1 7.4s7.7-3.3 8.1-7.4c.2-.4-.1-.7-.5-.7z"></path><path d="M46.7 22.4C45.4 13.7 38.9 6.9 30.6 5L32.4.8 30.6 0l-2 4.7c-.5-.1-1.1-.1-1.6-.1L28.6.9 26.7 0l-1.9 4.5c-.6 0-1.2.1-1.8.2L24.7.8 22.9 0l-2.2 5.1C12.6 7.2 6.4 13.9 5.1 22.4c-2.9.4-5.1 2.9-5.1 5.9 0 3.3 2.6 5.9 5.9 5.9.3 0 .6 0 .9-.1 1.7 3.8 4.4 6.9 7.7 9-1.4 1.8-2.1 4-2.1 6.2 0 1.7.4 3.4 1.3 5l.3.5.5.1c.5.1 1 .1 1.4.1 2.7 0 5.4-.8 7.5-2.3.7.6 1.5.9 2.4.9.9 0 1.8-.4 2.4-.9 2.2 1.5 4.8 2.3 7.6 2.3.4 0 .9 0 1.4-.1l.5-.1.3-.5c.9-1.6 1.3-3.2 1.3-5 0-2.2-.7-4.3-2.1-6.2 3.3-2.1 6-5.2 7.7-9 .3.1.6.1.9.1 3.3 0 5.9-2.7 5.9-5.9.1-3-2.1-5.5-5-5.9zm-27-14.9l-.3.6 1.8.9.9-2.1 1.8-.3-.7 1.6 1.9.8 1-2.5c.6 0 1.1 0 1.7.1l-.7 1.6L29 9l.9-2.1c7.6 1.6 13.5 7.7 14.8 15.5l-5.3 1.4c-.7-2.9-3.4-5-6.5-5-2.5 0-4.7 1.4-5.8 3.4h-2.9c-1.2-2-3.3-3.4-5.8-3.4-3.1 0-5.7 2.1-6.5 4.9l-4.7-1.3c1.1-7 6-12.6 12.5-14.9zm17.9 18c0 2.6-2.1 4.7-4.7 4.7s-4.7-2.1-4.7-4.7 2.1-4.7 4.7-4.7 4.7 2.1 4.7 4.7zm-14.6 0c0 2.6-2.1 4.7-4.7 4.7s-4.7-2.1-4.7-4.7 2.1-4.7 4.7-4.7 4.7 2.1 4.7 4.7zm-.6 25.4c-2 1.4-4.6 2-7.1 1.9-.5-1.1-.8-2.3-.8-3.5 0-1.6.5-3.2 1.4-4.6 2.7.2 5.2 1.2 7 2.9-.4.6-.7 1.3-.7 2.1 0 .5 0 .8.2 1.2zm3.5.6c-.9 0-1.7-.8-1.7-1.7s.8-1.7 1.7-1.7 1.7.8 1.7 1.7-.8 1.7-1.7 1.7zm11.5-2.2c0 1.2-.3 2.4-.8 3.5-2.6.1-5.2-.6-7.2-1.9.1-.3.2-.7.2-1.1 0-.8-.2-1.5-.6-2.1 1.8-1.7 4.3-2.8 7-3 .9 1.4 1.4 3 1.4 4.6zm8.5-17.1c-.4 0-.7-.1-1.2-.2l-.9-.3-.3.9c-2.9 7.2-9.8 11.9-17.6 11.9S11.2 39.8 8.3 32.6l-.3-.9-.9.3c-.4.1-.8.2-1.2.2-2.2 0-3.9-1.8-3.9-3.9s1.8-3.9 3.8-3.9h1l4.8 1.3c.1 3.6 3.1 6.5 6.7 6.5 3.7 0 6.7-3 6.7-6.7 0-.4 0-.9-.1-1.3h1.4c-.1.4-.1.8-.1 1.3 0 3.7 3 6.7 6.7 6.7 3.6 0 6.5-2.8 6.7-6.4l5.3-1.4h1c2.2 0 3.9 1.8 3.9 3.9s-1.7 3.9-3.9 3.9z"></path></g><defs data-v-fde0c5aa=""><!----></defs><g data-v-fde0c5aa="" id="e12147ca-fd4d-4456-85da-4b69a75b2a48" fill="#06687d" transform="matrix(0.5533327460289001,0,0,0.5533327460289001,52.029667140754384,225.3910391765393)"><path d="M2.04 16.24L2.04 16.24L2.04 16.24Q1.37 16.04 1.11 15.85L1.11 15.85L1.11 15.85Q0.85 15.65 0.85 15.36L0.85 15.36L0.85 15.36Q0.85 15.13 0.98 14.73L0.98 14.73L0.98 14.73Q1.11 14.32 1.35 13.77L1.35 13.77L1.35 13.77Q1.60 13.22 1.94 12.54L1.94 12.54L1.94 12.54Q2.28 11.87 2.72 11.10L2.72 11.10L2.72 11.10Q2.35 11.09 2.06 11.08L2.06 11.08L2.06 11.08Q1.78 11.07 1.60 11.07L1.60 11.07L1.60 11.07Q1.68 10.86 2.07 10.71L2.07 10.71L2.07 10.71Q2.46 10.56 3.11 10.44L3.11 10.44L3.11 10.44Q3.65 9.53 4.28 8.71L4.28 8.71L4.28 8.71Q4.90 7.88 5.53 7.19L5.53 7.19L5.53 7.19Q6.16 6.50 6.79 5.97L6.79 5.97L6.79 5.97Q7.42 5.45 7.99 5.14L7.99 5.14L7.99 5.14Q8.01 5.04 8.02 4.97L8.02 4.97L8.02 4.97Q8.02 4.90 8.02 4.87L8.02 4.87L8.02 4.87Q8.22 4.87 8.55 4.97L8.55 4.97L8.55 4.97Q8.88 5.07 9.19 5.21L9.19 5.21L9.19 5.21Q9.51 5.35 9.75 5.49L9.75 5.49L9.75 5.49Q10.00 5.64 10.02 5.74L10.02 5.74L10.02 5.74Q9.56 6.55 9.11 8.17L9.11 8.17L9.11 8.17Q8.67 9.79 8.37 12.04L8.37 12.04L8.37 12.04Q8.30 12.60 8.25 13.31L8.25 13.31L8.25 13.31Q8.20 14.03 8.20 14.91L8.20 14.91L8.20 14.91Q8.20 15.22 8.20 15.54L8.20 15.54L8.20 15.54Q8.20 15.86 8.23 16.21L8.23 16.21L8.23 16.21Q8.20 16.23 8.18 16.23L8.18 16.23L8.18 16.23Q8.15 16.23 8.06 16.23L8.06 16.23L8.06 16.23Q7.87 16.23 7.61 16.16L7.61 16.16L7.61 16.16Q7.35 16.10 7.11 16.01L7.11 16.01L7.11 16.01Q6.86 15.92 6.69 15.81L6.69 15.81L6.69 15.81Q6.51 15.69 6.47 15.61L6.47 15.61L6.47 15.61Q6.45 15.43 6.45 15.25L6.45 15.25L6.45 15.25Q6.45 15.08 6.45 14.88L6.45 14.88L6.45 14.88Q6.45 14.01 6.52 13.12L6.52 13.12L6.52 13.12Q6.58 12.22 6.73 11.27L6.73 11.27L6.73 11.27Q6.54 11.26 6.22 11.23L6.22 11.23L6.22 11.23Q5.89 11.21 5.50 11.20L5.50 11.20L5.50 11.20Q5.10 11.19 4.64 11.16L4.64 11.16L4.64 11.16Q4.19 11.14 3.75 11.13L3.75 11.13L3.75 11.13Q3.42 11.76 3.12 12.38L3.12 12.38L3.12 12.38Q2.83 13.01 2.62 13.64L2.62 13.64L2.62 13.64Q2.38 14.31 2.23 14.98L2.23 14.98L2.23 14.98Q2.09 15.65 2.04 16.24ZM7.45 7.83L7.45 7.83L7.45 7.83Q7.50 7.63 7.58 7.29L7.58 7.29L7.58 7.29Q7.66 6.94 7.73 6.57L7.73 6.57L7.73 6.57Q7.38 6.69 6.95 7.03L6.95 7.03L6.95 7.03Q6.52 7.36 6.07 7.86L6.07 7.86L6.07 7.86Q5.61 8.36 5.15 8.98L5.15 8.98L5.15 8.98Q4.68 9.60 4.24 10.30L4.24 10.30L4.24 10.30Q5.42 10.21 6.92 10.18L6.92 10.18L6.92 10.18Q7.03 9.59 7.16 9.01L7.16 9.01L7.16 9.01Q7.29 8.43 7.45 7.83ZM18.65 16.24L18.65 16.24L18.65 16.24Q17.85 16.00 17.57 15.79L17.57 15.79L17.57 15.79Q17.29 15.57 17.29 15.19L17.29 15.19L17.29 15.19Q17.29 14.77 17.49 14.01L17.49 14.01L17.49 14.01Q17.68 13.24 18.00 12.31L18.00 12.31L18.00 12.31Q18.31 11.37 18.72 10.35L18.72 10.35L18.72 10.35Q19.12 9.32 19.54 8.39L19.54 8.39L19.54 8.39Q19.96 7.45 20.36 6.67L20.36 6.67L20.36 6.67Q20.76 5.89 21.07 5.46L21.07 5.46L20.97 4.87L20.97 4.87Q21.17 4.87 21.52 4.97L21.52 4.97L21.52 4.97Q21.87 5.07 22.23 5.21L22.23 5.21L22.23 5.21Q22.58 5.35 22.86 5.49L22.86 5.49L22.86 5.49Q23.13 5.64 23.16 5.74L23.16 5.74L23.16 5.74Q23.09 6.08 23.04 6.76L23.04 6.76L23.04 6.76Q23.00 7.43 23.00 8.20L23.00 8.20L23.00 8.20Q23.00 9.73 23.12 11.19L23.12 11.19L23.12 11.19Q23.24 12.66 23.67 14.17L23.67 14.17L23.67 14.17Q23.90 13.05 24.16 11.94L24.16 11.94L24.16 11.94Q24.42 10.82 24.70 9.81L24.70 9.81L24.70 9.81Q24.98 8.79 25.26 7.92L25.26 7.92L25.26 7.92Q25.54 7.06 25.80 6.40L25.80 6.40L25.80 6.40Q26.05 5.75 26.28 5.38L26.28 5.38L26.28 5.38Q26.50 5.01 26.68 4.98L26.68 4.98L26.68 4.98Q26.84 5.01 27.02 5.10L27.02 5.10L27.02 5.10Q27.20 5.19 27.37 5.32L27.37 5.32L27.37 5.32Q27.54 5.45 27.68 5.60L27.68 5.60L27.68 5.60Q27.82 5.75 27.90 5.91L27.90 5.91L27.90 5.91Q27.45 6.09 27.01 6.76L27.01 6.76L27.01 6.76Q26.57 7.43 26.17 8.39L26.17 8.39L26.17 8.39Q25.77 9.35 25.43 10.47L25.43 10.47L25.43 10.47Q25.09 11.59 24.83 12.68L24.83 12.68L24.83 12.68Q24.57 13.76 24.42 14.69L24.42 14.69L24.42 14.69Q24.28 15.61 24.26 16.17L24.26 16.17L24.26 16.17Q24.26 16.20 24.28 16.21L24.28 16.21L24.28 16.21Q24.23 16.23 24.19 16.23L24.19 16.23L24.19 16.23Q24.14 16.23 24.09 16.23L24.09 16.23L24.09 16.23Q23.45 16.23 22.95 16.07L22.95 16.07L22.95 16.07Q22.46 15.90 22.30 15.61L22.30 15.61L22.30 15.61Q22.01 14.43 21.81 13.34L21.81 13.34L21.81 13.34Q21.62 12.25 21.48 11.16L21.48 11.16L21.48 11.16Q21.35 10.07 21.27 8.95L21.27 8.95L21.27 8.95Q21.20 7.84 21.15 6.62L21.15 6.62L21.15 6.62Q20.89 7.04 20.59 7.72L20.59 7.72L20.59 7.72Q20.30 8.40 20.02 9.21L20.02 9.21L20.02 9.21Q19.74 10.02 19.48 10.92L19.48 10.92L19.48 10.92Q19.22 11.82 19.03 12.67L19.03 12.67L19.03 12.67Q18.83 13.52 18.72 14.29L18.72 14.29L18.72 14.29Q18.61 15.05 18.61 15.61L18.61 15.61L18.61 15.61Q18.61 15.90 18.61 16.03L18.61 16.03L18.61 16.03Q18.62 16.16 18.65 16.24ZM44.72 14.38L44.72 14.38L44.72 14.38Q44.72 13.87 44.88 13.07L44.88 13.07L44.88 13.07Q45.04 12.26 45.30 11.33L45.30 11.33L45.30 11.33Q45.56 10.40 45.89 9.43L45.89 9.43L45.89 9.43Q46.23 8.46 46.58 7.60L46.58 7.60L46.58 7.60Q46.93 6.75 47.26 6.10L47.26 6.10L47.26 6.10Q47.60 5.46 47.87 5.18L47.87 5.18L47.87 5.18Q48.01 5.19 48.24 5.29L48.24 5.29L48.24 5.29Q48.47 5.38 48.71 5.50L48.71 5.50L48.71 5.50Q48.94 5.63 49.14 5.78L49.14 5.78L49.14 5.78Q49.34 5.92 49.39 6.05L49.39 6.05L49.39 6.05Q48.99 6.41 48.59 7.15L48.59 7.15L48.59 7.15Q48.19 7.88 47.82 8.82L47.82 8.82L47.82 8.82Q47.45 9.76 47.12 10.80L47.12 10.80L47.12 10.80Q46.80 11.84 46.56 12.82L46.56 12.82L46.56 12.82Q46.33 13.80 46.19 14.64L46.19 14.64L46.19 14.64Q46.06 15.48 46.06 16.00L46.06 16.00L46.06 16.00Q46.06 16.24 46.10 16.30L46.10 16.30L46.10 16.30Q45.79 16.28 45.65 16.19L45.65 16.19L45.65 16.19Q45.51 16.10 45.44 16.00L45.44 16.00L45.44 16.00Q45.36 15.89 45.30 15.79L45.30 15.79L45.30 15.79Q45.23 15.68 45.11 15.62L45.11 15.62L45.11 15.62Q45.01 15.58 44.94 15.43L44.94 15.43L44.94 15.43Q44.87 15.27 44.82 15.09L44.82 15.09L44.82 15.09Q44.77 14.90 44.74 14.70L44.74 14.70L44.74 14.70Q44.72 14.50 44.72 14.38ZM56.64 14.45L56.64 14.45L56.64 14.45Q56.85 13.99 57.15 13.26L57.15 13.26L57.15 13.26Q57.44 12.53 57.76 11.68L57.76 11.68L57.76 11.68Q58.09 10.84 58.42 9.95L58.42 9.95L58.42 9.95Q58.76 9.06 59.05 8.26L59.05 8.26L59.05 8.26Q59.35 7.46 59.56 6.83L59.56 6.83L59.56 6.83Q59.78 6.20 59.88 5.87L59.88 5.87L59.88 5.87Q59.00 6.23 58.37 6.97L58.37 6.97L58.37 6.97Q57.74 7.71 57.41 8.83L57.41 8.83L57.41 8.83Q57.09 8.72 56.83 8.43L56.83 8.43L56.83 8.43Q56.56 8.15 56.48 7.71L56.48 7.71L56.48 7.71Q56.62 7.07 57.00 6.54L57.00 6.54L57.00 6.54Q57.39 6.01 57.97 5.63L57.97 5.63L57.97 5.63Q58.56 5.25 59.33 5.05L59.33 5.05L59.33 5.05Q60.10 4.84 60.98 4.84L60.98 4.84L60.98 4.84Q62.10 4.84 63.04 5.17L63.04 5.17L63.04 5.17Q63.98 5.50 64.65 6.09L64.65 6.09L64.65 6.09Q65.32 6.68 65.70 7.50L65.70 7.50L65.70 7.50Q66.08 8.33 66.08 9.34L66.08 9.34L66.08 9.34Q66.08 10.71 65.58 11.96L65.58 11.96L65.58 11.96Q65.07 13.20 64.21 14.15L64.21 14.15L64.21 14.15Q63.35 15.11 62.22 15.67L62.22 15.67L62.22 15.67Q61.08 16.24 59.84 16.24L59.84 16.24L59.84 16.24Q58.69 16.24 57.87 15.79L57.87 15.79L57.87 15.79Q57.05 15.33 56.64 14.45ZM61.59 5.54L61.59 5.54L61.59 5.54Q60.89 5.54 60.26 5.74L60.26 5.74L60.26 5.74Q60.87 5.96 61.28 6.21L61.28 6.21L61.28 6.21Q61.68 6.45 61.84 6.59L61.84 6.59L61.84 6.59Q61.73 6.75 61.51 7.14L61.51 7.14L61.51 7.14Q61.29 7.53 61.01 8.09L61.01 8.09L61.01 8.09Q60.72 8.65 60.40 9.32L60.40 9.32L60.40 9.32Q60.07 9.98 59.77 10.68L59.77 10.68L59.77 10.68Q58.97 12.46 58.61 13.48L58.61 13.48L58.61 13.48Q58.25 14.50 58.25 14.90L58.25 14.90L58.25 14.90Q58.45 14.97 58.73 14.99L58.73 14.99L58.73 14.99Q59.01 15.02 59.33 15.02L59.33 15.02L59.33 15.02Q60.47 15.02 61.48 14.50L61.48 14.50L61.48 14.50Q62.50 13.97 63.26 13.09L63.26 13.09L63.26 13.09Q64.02 12.21 64.46 11.04L64.46 11.04L64.46 11.04Q64.90 9.87 64.90 8.58L64.90 8.58L64.90 8.58Q64.90 7.14 64.01 6.34L64.01 6.34L64.01 6.34Q63.11 5.54 61.59 5.54ZM79.38 9.21L79.38 9.21L79.38 9.21Q79.84 9.21 80.10 9.46L80.10 9.46L80.10 9.46Q80.36 9.72 80.36 10.16L80.36 10.16L80.36 10.16Q80.36 10.28 80.34 10.39L80.34 10.39L80.34 10.39Q80.32 10.51 80.29 10.60L80.29 10.60L80.29 10.60Q80.11 10.57 79.88 10.55L79.88 10.55L79.88 10.55Q79.66 10.53 79.35 10.53L79.35 10.53L79.35 10.53Q78.75 10.53 78.13 10.63L78.13 10.63L78.13 10.63Q77.52 10.74 76.96 10.81L76.96 10.81L76.96 10.81Q76.64 11.55 76.37 12.24L76.37 12.24L76.37 12.24Q76.10 12.94 75.91 13.51L75.91 13.51L75.91 13.51Q75.73 14.08 75.62 14.50L75.62 14.50L75.62 14.50Q75.52 14.92 75.50 15.13L75.50 15.13L75.50 15.13Q76.64 14.90 77.79 14.73L77.79 14.73L77.79 14.73Q78.95 14.56 80.22 14.48L80.22 14.48L80.22 14.48Q80.37 14.71 80.48 14.99L80.48 14.99L80.48 14.99Q80.58 15.27 80.58 15.60L80.58 15.60L80.58 15.60Q80.58 15.68 80.58 15.78L80.58 15.78L80.58 15.78Q80.58 15.88 80.56 15.97L80.56 15.97L80.56 15.97Q80.16 15.96 79.73 15.95L79.73 15.95L79.73 15.95Q79.30 15.95 78.60 15.95L78.60 15.95L78.60 15.95Q78.13 15.95 77.72 15.97L77.72 15.97L77.72 15.97Q77.31 15.99 76.89 16.03L76.89 16.03L76.89 16.03Q76.47 16.07 76.00 16.14L76.00 16.14L76.00 16.14Q75.53 16.21 74.94 16.31L74.94 16.31L74.94 16.31Q74.30 16.06 73.70 15.08L73.70 15.08L73.70 15.08Q73.93 14.57 74.36 13.54L74.36 13.54L74.36 13.54Q74.79 12.52 75.45 10.79L75.45 10.79L75.45 10.79Q74.82 10.60 74.62 10.09L74.62 10.09L74.62 10.09Q74.69 10.02 75.03 9.92L75.03 9.92L75.03 9.92Q75.36 9.81 75.85 9.70L75.85 9.70L75.85 9.70Q76.06 9.16 76.21 8.75L76.21 8.75L76.21 8.75Q76.36 8.34 76.47 7.99L76.47 7.99L76.47 7.99Q76.58 7.63 76.67 7.29L76.67 7.29L76.67 7.29Q76.76 6.94 76.85 6.54L76.85 6.54L76.85 6.54Q76.36 6.51 76.08 6.27L76.08 6.27L76.08 6.27Q75.80 6.02 75.80 5.63L75.80 5.63L75.80 5.63Q75.80 5.52 75.83 5.36L75.83 5.36L75.83 5.36Q75.87 5.21 75.91 5.10L75.91 5.10L75.91 5.10Q76.19 5.14 76.45 5.15L76.45 5.15L76.45 5.15Q76.71 5.17 77.13 5.17L77.13 5.17L77.13 5.17Q78.01 5.17 78.78 5.12L78.78 5.12L78.78 5.12Q79.55 5.07 80.17 5.01L80.17 5.01L80.17 5.01Q80.79 4.96 81.24 4.91L81.24 4.91L81.24 4.91Q81.69 4.86 81.93 4.86L81.93 4.86L81.93 4.86Q82.25 4.86 82.50 5.19L82.50 5.19L82.50 5.19Q82.75 5.53 82.88 6.15L82.88 6.15L82.88 6.15Q82.45 6.10 82.17 6.09L82.17 6.09L82.17 6.09Q81.90 6.08 81.69 6.08L81.69 6.08L81.69 6.08Q80.92 6.08 80.28 6.15L80.28 6.15L80.28 6.15Q79.65 6.23 79.06 6.31L79.06 6.31L79.06 6.31Q78.97 6.44 78.87 6.64L78.87 6.64L78.87 6.64Q78.76 6.83 78.60 7.18L78.60 7.18L78.60 7.18Q78.43 7.53 78.18 8.06L78.18 8.06L78.18 8.06Q77.94 8.60 77.59 9.39L77.59 9.39L77.59 9.39Q78.12 9.31 78.59 9.26L78.59 9.26L78.59 9.26Q79.06 9.21 79.38 9.21ZM90.37 16.24L90.37 16.24L90.37 16.24Q89.57 16.00 89.29 15.79L89.29 15.79L89.29 15.79Q89.01 15.57 89.01 15.19L89.01 15.19L89.01 15.19Q89.01 14.77 89.21 14.01L89.21 14.01L89.21 14.01Q89.40 13.24 89.72 12.31L89.72 12.31L89.72 12.31Q90.03 11.37 90.44 10.35L90.44 10.35L90.44 10.35Q90.85 9.32 91.27 8.39L91.27 8.39L91.27 8.39Q91.69 7.45 92.08 6.67L92.08 6.67L92.08 6.67Q92.48 5.89 92.79 5.46L92.79 5.46L92.69 4.87L92.69 4.87Q92.89 4.87 93.24 4.97L93.24 4.97L93.24 4.97Q93.59 5.07 93.95 5.21L93.95 5.21L93.95 5.21Q94.30 5.35 94.58 5.49L94.58 5.49L94.58 5.49Q94.85 5.64 94.88 5.74L94.88 5.74L94.88 5.74Q94.81 6.08 94.77 6.76L94.77 6.76L94.77 6.76Q94.72 7.43 94.72 8.20L94.72 8.20L94.72 8.20Q94.72 9.73 94.84 11.19L94.84 11.19L94.84 11.19Q94.96 12.66 95.40 14.17L95.40 14.17L95.40 14.17Q95.62 13.05 95.88 11.94L95.88 11.94L95.88 11.94Q96.14 10.82 96.42 9.81L96.42 9.81L96.42 9.81Q96.70 8.79 96.98 7.92L96.98 7.92L96.98 7.92Q97.26 7.06 97.52 6.40L97.52 6.40L97.52 6.40Q97.78 5.75 98 5.38L98 5.38L98 5.38Q98.22 5.01 98.41 4.98L98.41 4.98L98.41 4.98Q98.56 5.01 98.74 5.10L98.74 5.10L98.74 5.10Q98.92 5.19 99.09 5.32L99.09 5.32L99.09 5.32Q99.26 5.45 99.40 5.60L99.40 5.60L99.40 5.60Q99.54 5.75 99.62 5.91L99.62 5.91L99.62 5.91Q99.18 6.09 98.73 6.76L98.73 6.76L98.73 6.76Q98.29 7.43 97.89 8.39L97.89 8.39L97.89 8.39Q97.50 9.35 97.15 10.47L97.15 10.47L97.15 10.47Q96.81 11.59 96.55 12.68L96.55 12.68L96.55 12.68Q96.29 13.76 96.14 14.69L96.14 14.69L96.14 14.69Q96.00 15.61 95.98 16.17L95.98 16.17L95.98 16.17Q95.98 16.20 96.00 16.21L96.00 16.21L96.00 16.21Q95.96 16.23 95.91 16.23L95.91 16.23L95.91 16.23Q95.86 16.23 95.82 16.23L95.82 16.23L95.82 16.23Q95.17 16.23 94.67 16.07L94.67 16.07L94.67 16.07Q94.18 15.90 94.02 15.61L94.02 15.61L94.02 15.61Q93.73 14.43 93.53 13.34L93.53 13.34L93.53 13.34Q93.34 12.25 93.20 11.16L93.20 11.16L93.20 11.16Q93.07 10.07 92.99 8.95L92.99 8.95L92.99 8.95Q92.92 7.84 92.88 6.62L92.88 6.62L92.88 6.62Q92.61 7.04 92.32 7.72L92.32 7.72L92.32 7.72Q92.02 8.40 91.74 9.21L91.74 9.21L91.74 9.21Q91.46 10.02 91.20 10.92L91.20 10.92L91.20 10.92Q90.94 11.82 90.75 12.67L90.75 12.67L90.75 12.67Q90.55 13.52 90.44 14.29L90.44 14.29L90.44 14.29Q90.33 15.05 90.33 15.61L90.33 15.61L90.33 15.61Q90.33 15.90 90.33 16.03L90.33 16.03L90.33 16.03Q90.34 16.16 90.37 16.24ZM108.46 6.69L108.46 6.69L108.46 6.69Q107.90 6.69 107.60 6.38L107.60 6.38L107.60 6.38Q107.30 6.06 107.30 5.61L107.30 5.61L107.30 5.61Q107.30 5.50 107.33 5.35L107.33 5.35L107.33 5.35Q107.37 5.19 107.42 5.08L107.42 5.08L107.42 5.08Q107.60 5.17 107.96 5.20L107.96 5.20L107.96 5.20Q108.32 5.24 108.79 5.24L108.79 5.24L108.79 5.24Q109.51 5.24 110.41 5.17L110.41 5.17L110.41 5.17Q111.31 5.11 112.14 5.04L112.14 5.04L112.14 5.04Q112.97 4.97 113.60 4.91L113.60 4.91L113.60 4.91Q114.23 4.84 114.41 4.84L114.41 4.84L114.41 4.84Q114.93 4.84 115.16 5.23L115.16 5.23L115.16 5.23Q115.39 5.61 115.50 6.26L115.50 6.26L115.50 6.26Q115.14 6.23 114.78 6.21L114.78 6.21L114.78 6.21Q114.42 6.19 114.17 6.19L114.17 6.19L114.17 6.19Q113.72 6.19 113.27 6.22L113.27 6.22L113.27 6.22Q112.81 6.24 112.35 6.30L112.35 6.30L112.35 6.30Q112.15 6.71 111.92 7.26L111.92 7.26L111.92 7.26Q111.68 7.81 111.45 8.41L111.45 8.41L111.45 8.41Q111.22 9.02 111.01 9.61L111.01 9.61L111.01 9.61Q110.80 10.21 110.64 10.68L110.64 10.68L110.64 10.68Q110.33 11.61 110.10 12.39L110.10 12.39L110.10 12.39Q109.87 13.17 109.70 13.85L109.70 13.85L109.70 13.85Q109.52 14.53 109.40 15.15L109.40 15.15L109.40 15.15Q109.27 15.76 109.17 16.35L109.17 16.35L109.17 16.35Q108.23 16.21 107.60 15.18L107.60 15.18L107.60 15.18Q107.72 14.74 107.88 14.23L107.88 14.23L107.88 14.23Q108.04 13.72 108.25 13.07L108.25 13.07L108.25 13.07Q108.47 12.42 108.77 11.59L108.77 11.59L108.77 11.59Q109.06 10.77 109.44 9.72L109.44 9.72L109.44 9.72Q109.58 9.32 109.73 8.90L109.73 8.90L109.73 8.90Q109.89 8.47 110.03 8.05L110.03 8.05L110.03 8.05Q110.18 7.63 110.30 7.24L110.30 7.24L110.30 7.24Q110.42 6.85 110.50 6.52L110.50 6.52L110.50 6.52Q109.91 6.59 109.39 6.64L109.39 6.64L109.39 6.64Q108.86 6.69 108.46 6.69ZM121.34 14.38L121.34 14.38L121.34 14.38Q121.34 13.87 121.50 13.07L121.50 13.07L121.50 13.07Q121.66 12.26 121.92 11.33L121.92 11.33L121.92 11.33Q122.18 10.40 122.51 9.43L122.51 9.43L122.51 9.43Q122.85 8.46 123.20 7.60L123.20 7.60L123.20 7.60Q123.55 6.75 123.89 6.10L123.89 6.10L123.89 6.10Q124.22 5.46 124.49 5.18L124.49 5.18L124.49 5.18Q124.63 5.19 124.86 5.29L124.86 5.29L124.86 5.29Q125.09 5.38 125.33 5.50L125.33 5.50L125.33 5.50Q125.57 5.63 125.76 5.78L125.76 5.78L125.76 5.78Q125.96 5.92 126.01 6.05L126.01 6.05L126.01 6.05Q125.61 6.41 125.21 7.15L125.21 7.15L125.21 7.15Q124.81 7.88 124.44 8.82L124.44 8.82L124.44 8.82Q124.07 9.76 123.75 10.80L123.75 10.80L123.75 10.80Q123.42 11.84 123.19 12.82L123.19 12.82L123.19 12.82Q122.95 13.80 122.81 14.64L122.81 14.64L122.81 14.64Q122.68 15.48 122.68 16.00L122.68 16.00L122.68 16.00Q122.68 16.24 122.72 16.30L122.72 16.30L122.72 16.30Q122.42 16.28 122.28 16.19L122.28 16.19L122.28 16.19Q122.14 16.10 122.06 16.00L122.06 16.00L122.06 16.00Q121.98 15.89 121.92 15.79L121.92 15.79L121.92 15.79Q121.86 15.68 121.73 15.62L121.73 15.62L121.73 15.62Q121.63 15.58 121.56 15.43L121.56 15.43L121.56 15.43Q121.49 15.27 121.44 15.09L121.44 15.09L121.44 15.09Q121.39 14.90 121.37 14.70L121.37 14.70L121.37 14.70Q121.34 14.50 121.34 14.38ZM135.10 6.69L135.10 6.69L135.10 6.69Q134.54 6.69 134.24 6.38L134.24 6.38L134.24 6.38Q133.94 6.06 133.94 5.61L133.94 5.61L133.94 5.61Q133.94 5.50 133.97 5.35L133.97 5.35L133.97 5.35Q134.01 5.19 134.06 5.08L134.06 5.08L134.06 5.08Q134.25 5.17 134.60 5.20L134.60 5.20L134.60 5.20Q134.96 5.24 135.44 5.24L135.44 5.24L135.44 5.24Q136.15 5.24 137.05 5.17L137.05 5.17L137.05 5.17Q137.96 5.11 138.78 5.04L138.78 5.04L138.78 5.04Q139.61 4.97 140.24 4.91L140.24 4.91L140.24 4.91Q140.87 4.84 141.05 4.84L141.05 4.84L141.05 4.84Q141.57 4.84 141.80 5.23L141.80 5.23L141.80 5.23Q142.03 5.61 142.14 6.26L142.14 6.26L142.14 6.26Q141.78 6.23 141.42 6.21L141.42 6.21L141.42 6.21Q141.06 6.19 140.81 6.19L140.81 6.19L140.81 6.19Q140.36 6.19 139.91 6.22L139.91 6.22L139.91 6.22Q139.45 6.24 138.99 6.30L138.99 6.30L138.99 6.30Q138.80 6.71 138.56 7.26L138.56 7.26L138.56 7.26Q138.32 7.81 138.09 8.41L138.09 8.41L138.09 8.41Q137.86 9.02 137.65 9.61L137.65 9.61L137.65 9.61Q137.44 10.21 137.28 10.68L137.28 10.68L137.28 10.68Q136.98 11.61 136.74 12.39L136.74 12.39L136.74 12.39Q136.51 13.17 136.34 13.85L136.34 13.85L136.34 13.85Q136.16 14.53 136.04 15.15L136.04 15.15L136.04 15.15Q135.91 15.76 135.81 16.35L135.81 16.35L135.81 16.35Q134.88 16.21 134.25 15.18L134.25 15.18L134.25 15.18Q134.36 14.74 134.52 14.23L134.52 14.23L134.52 14.23Q134.68 13.72 134.90 13.07L134.90 13.07L134.90 13.07Q135.11 12.42 135.41 11.59L135.41 11.59L135.41 11.59Q135.70 10.77 136.08 9.72L136.08 9.72L136.08 9.72Q136.22 9.32 136.37 8.90L136.37 8.90L136.37 8.90Q136.53 8.47 136.67 8.05L136.67 8.05L136.67 8.05Q136.82 7.63 136.94 7.24L136.94 7.24L136.94 7.24Q137.06 6.85 137.14 6.52L137.14 6.52L137.14 6.52Q136.56 6.59 136.03 6.64L136.03 6.64L136.03 6.64Q135.51 6.69 135.10 6.69ZM152.73 10.35L152.73 10.35L152.73 10.35Q153.78 9.20 154.61 7.91L154.61 7.91L154.61 7.91Q155.44 6.62 156.16 5.01L156.16 5.01L156.16 5.01Q156.52 5.05 156.86 5.21L156.86 5.21L156.86 5.21Q157.19 5.36 157.39 5.56L157.39 5.56L157.39 5.56Q156.62 6.48 155.99 7.24L155.99 7.24L155.99 7.24Q155.37 7.99 154.85 8.66L154.85 8.66L154.85 8.66Q154.34 9.32 153.89 9.93L153.89 9.93L153.89 9.93Q153.45 10.54 153.03 11.16L153.03 11.16L153.03 11.16Q152.82 11.87 152.64 12.60L152.64 12.60L152.64 12.60Q152.46 13.33 152.32 13.99L152.32 13.99L152.32 13.99Q152.18 14.66 152.10 15.22L152.10 15.22L152.10 15.22Q152.03 15.79 152.03 16.20L152.03 16.20L152.03 16.20Q151.87 16.20 151.54 16.14L151.54 16.14L151.54 16.14Q151.20 16.07 150.85 15.99L150.85 15.99L150.85 15.99Q150.50 15.90 150.21 15.82L150.21 15.82L150.21 15.82Q149.93 15.74 149.87 15.68L149.87 15.68L149.87 15.68Q150.09 15.30 150.31 14.75L150.31 14.75L150.31 14.75Q150.53 14.20 150.74 13.59L150.74 13.59L150.74 13.59Q150.95 12.98 151.14 12.36L151.14 12.36L151.14 12.36Q151.34 11.73 151.51 11.20L151.51 11.20L151.51 11.20Q151.16 10.11 150.83 9.15L150.83 9.15L150.83 9.15Q150.50 8.19 150.19 7.41L150.19 7.41L150.19 7.41Q149.88 6.64 149.60 6.08L149.60 6.08L149.60 6.08Q149.32 5.52 149.07 5.22L149.07 5.22L149.07 5.22Q149.21 5.17 149.50 5.11L149.50 5.11L149.50 5.11Q149.79 5.05 150.13 5.00L150.13 5.00L150.13 5.00Q150.47 4.94 150.83 4.91L150.83 4.91L150.83 4.91Q151.19 4.87 151.47 4.86L151.47 4.86L151.47 4.86Q151.47 5.21 151.53 5.71L151.53 5.71L151.53 5.71Q151.59 6.22 151.70 6.79L151.70 6.79L151.70 6.79Q151.80 7.36 151.94 7.95L151.94 7.95L151.94 7.95Q152.08 8.54 152.22 9.03L152.22 9.03L152.22 9.03Q152.36 9.52 152.49 9.88L152.49 9.88L152.49 9.88Q152.63 10.23 152.73 10.35ZM179.34 9.34L179.34 9.34L179.34 9.34Q179.79 9.34 180.05 9.59L180.05 9.59L180.05 9.59Q180.31 9.84 180.31 10.29L180.31 10.29L180.31 10.29Q180.31 10.40 180.29 10.52L180.29 10.52L180.29 10.52Q180.28 10.64 180.24 10.72L180.24 10.72L180.24 10.72Q180.05 10.70 179.83 10.68L179.83 10.68L179.83 10.68Q179.61 10.65 179.30 10.65L179.30 10.65L179.30 10.65Q178.67 10.65 178.04 10.77L178.04 10.77L178.04 10.77Q177.41 10.88 176.83 10.95L176.83 10.95L176.83 10.95Q176.20 12.43 175.80 13.73L175.80 13.73L175.80 13.73Q175.39 15.04 175.17 16.31L175.17 16.31L175.17 16.31Q174.69 16.20 174.33 15.90L174.33 15.90L174.33 15.90Q173.96 15.61 173.64 15.08L173.64 15.08L173.64 15.08Q173.74 14.85 173.88 14.54L173.88 14.54L173.88 14.54Q174.02 14.22 174.22 13.74L174.22 13.74L174.22 13.74Q174.41 13.26 174.68 12.56L174.68 12.56L174.68 12.56Q174.96 11.87 175.34 10.91L175.34 10.91L175.34 10.91Q174.75 10.71 174.57 10.22L174.57 10.22L174.57 10.22Q174.64 10.15 174.96 10.06L174.96 10.06L174.96 10.06Q175.28 9.97 175.74 9.86L175.74 9.86L175.74 9.86Q175.95 9.31 176.11 8.88L176.11 8.88L176.11 8.88Q176.26 8.46 176.39 8.07L176.39 8.07L176.39 8.07Q176.51 7.69 176.62 7.32L176.62 7.32L176.62 7.32Q176.72 6.94 176.81 6.52L176.81 6.52L176.74 6.52L176.74 6.52Q176.20 6.52 175.87 6.27L175.87 6.27L175.87 6.27Q175.55 6.02 175.55 5.61L175.55 5.61L175.55 5.61Q175.55 5.50 175.58 5.35L175.58 5.35L175.58 5.35Q175.62 5.19 175.67 5.08L175.67 5.08L175.67 5.08Q175.94 5.12 176.20 5.14L176.20 5.14L176.20 5.14Q176.46 5.15 176.88 5.15L176.88 5.15L176.88 5.15Q177.76 5.15 178.53 5.10L178.53 5.10L178.53 5.10Q179.30 5.05 179.92 5.00L179.92 5.00L179.92 5.00Q180.54 4.94 180.99 4.89L180.99 4.89L180.99 4.89Q181.44 4.84 181.68 4.84L181.68 4.84L181.68 4.84Q182.00 4.84 182.25 5.18L182.25 5.18L182.25 5.18Q182.50 5.52 182.64 6.13L182.64 6.13L182.64 6.13Q182.20 6.09 181.92 6.08L181.92 6.08L181.92 6.08Q181.65 6.06 181.44 6.06L181.44 6.06L181.44 6.06Q180.73 6.06 180.13 6.13L180.13 6.13L180.13 6.13Q179.54 6.19 179.00 6.27L179.00 6.27L179.00 6.27Q178.92 6.40 178.81 6.59L178.81 6.59L178.81 6.59Q178.71 6.79 178.54 7.15L178.54 7.15L178.54 7.15Q178.37 7.50 178.11 8.08L178.11 8.08L178.11 8.08Q177.86 8.65 177.46 9.53L177.46 9.53L177.46 9.53Q178.01 9.45 178.51 9.39L178.51 9.39L178.51 9.39Q179.00 9.34 179.34 9.34ZM194.64 4.98L194.64 4.98L194.64 4.98Q194.91 5.10 195.19 5.27L195.19 5.27L195.19 5.27Q195.47 5.45 195.71 5.63L195.71 5.63L195.71 5.63Q195.94 5.81 196.10 5.98L196.10 5.98L196.10 5.98Q196.27 6.16 196.28 6.27L196.28 6.27L196.28 6.27Q196.04 6.22 195.80 6.20L195.80 6.20L195.80 6.20Q195.57 6.17 195.37 6.17L195.37 6.17L195.37 6.17Q194.74 6.17 194.12 6.48L194.12 6.48L194.12 6.48Q193.49 6.79 192.93 7.32L192.93 7.32L192.93 7.32Q192.37 7.85 191.90 8.57L191.90 8.57L191.90 8.57Q191.42 9.28 191.08 10.09L191.08 10.09L191.08 10.09Q190.74 10.91 190.54 11.77L190.54 11.77L190.54 11.77Q190.34 12.64 190.34 13.48L190.34 13.48L190.34 13.48Q190.34 14.57 190.71 15.11L190.71 15.11L190.71 15.11Q191.07 15.64 191.77 15.64L191.77 15.64L191.77 15.64Q192.11 15.64 192.50 15.51L192.50 15.51L192.50 15.51Q192.89 15.37 193.30 15.13L193.30 15.13L193.30 15.13Q193.70 14.90 194.10 14.56L194.10 14.56L194.10 14.56Q194.49 14.22 194.82 13.82L194.82 13.82L194.82 13.82Q195.31 13.23 195.71 12.48L195.71 12.48L195.71 12.48Q196.10 11.73 196.37 10.89L196.37 10.89L196.37 10.89Q196.64 10.05 196.79 9.16L196.79 9.16L196.79 9.16Q196.94 8.27 196.94 7.42L196.94 7.42L196.94 7.42Q196.94 7.08 196.92 6.85L196.92 6.85L196.92 6.85Q196.91 6.62 196.89 6.46L196.89 6.46L196.89 6.46Q196.87 6.30 196.85 6.20L196.85 6.20L196.85 6.20Q196.84 6.10 196.83 6.03L196.83 6.03L196.83 6.03Q196.99 6.12 197.20 6.24L197.20 6.24L197.20 6.24Q197.40 6.36 197.57 6.59L197.57 6.59L197.57 6.59Q197.75 6.82 197.87 7.20L197.87 7.20L197.87 7.20Q197.99 7.57 197.99 8.18L197.99 8.18L197.99 8.18Q197.99 9.16 197.76 10.10L197.76 10.10L197.76 10.10Q197.53 11.05 197.11 11.90L197.11 11.90L197.11 11.90Q196.70 12.75 196.14 13.50L196.14 13.50L196.14 13.50Q195.58 14.24 194.94 14.80L194.94 14.80L194.94 14.80Q194.10 15.54 193.14 15.95L193.14 15.95L193.14 15.95Q192.19 16.35 191.31 16.35L191.31 16.35L191.31 16.35Q190.02 16.35 189.34 15.53L189.34 15.53L189.34 15.53Q188.66 14.71 188.66 13.12L188.66 13.12L188.66 13.12Q188.66 12.26 188.85 11.31L188.85 11.31L188.85 11.31Q189.04 10.36 189.38 9.44L189.38 9.44L189.38 9.44Q189.73 8.51 190.20 7.68L190.20 7.68L190.20 7.68Q190.68 6.85 191.25 6.21L191.25 6.21L191.25 6.21Q191.81 5.57 192.46 5.19L192.46 5.19L192.46 5.19Q193.12 4.82 193.80 4.82L193.80 4.82L193.80 4.82Q194.03 4.82 194.22 4.85L194.22 4.85L194.22 4.85Q194.42 4.89 194.64 4.98ZM214.83 7.46L214.83 7.46L214.83 7.46Q214.83 8.13 214.53 8.73L214.53 8.73L214.53 8.73Q214.23 9.32 213.70 9.79L213.70 9.79L213.70 9.79Q213.16 10.26 212.45 10.58L212.45 10.58L212.45 10.58Q211.74 10.91 210.90 11.02L210.90 11.02L210.90 11.02Q211.11 11.65 211.41 12.31L211.41 12.31L211.41 12.31Q211.71 12.98 212.06 13.59L212.06 13.59L212.06 13.59Q212.41 14.21 212.79 14.73L212.79 14.73L212.79 14.73Q213.16 15.25 213.53 15.58L213.53 15.58L213.53 15.58Q213.46 15.72 213.32 15.86L213.32 15.86L213.32 15.86Q213.19 16.00 213.02 16.12L213.02 16.12L213.02 16.12Q212.84 16.24 212.65 16.32L212.65 16.32L212.65 16.32Q212.46 16.39 212.30 16.39L212.30 16.39L212.30 16.39Q211.99 16.39 211.71 16.10L211.71 16.10L211.71 16.10Q211.43 15.81 211.14 15.17L211.14 15.17L211.14 15.17Q210.85 14.53 210.54 13.52L210.54 13.52L210.54 13.52Q210.22 12.50 209.85 11.07L209.85 11.07L209.85 11.07Q209.69 11.07 209.54 11.07L209.54 11.07L209.54 11.07Q209.38 11.07 209.30 11.05L209.30 11.05L209.30 11.05Q209.20 10.99 209.09 10.85L209.09 10.85L209.09 10.85Q208.71 11.66 208.42 12.38L208.42 12.38L208.42 12.38Q208.12 13.09 207.89 13.76L207.89 13.76L207.89 13.76Q207.66 14.42 207.49 15.04L207.49 15.04L207.49 15.04Q207.31 15.67 207.19 16.31L207.19 16.31L207.19 16.31Q206.71 16.20 206.36 15.90L206.36 15.90L206.36 15.90Q206.01 15.61 205.70 15.08L205.70 15.08L205.70 15.08Q205.76 14.95 205.82 14.83L205.82 14.83L205.82 14.83Q205.88 14.71 205.98 14.50L205.98 14.50L205.98 14.50Q206.08 14.28 206.23 13.94L206.23 13.94L206.23 13.94Q206.37 13.61 206.62 13.05L206.62 13.05L206.62 13.05Q206.86 12.49 207.21 11.68L207.21 11.68L207.21 11.68Q207.55 10.86 208.04 9.70L208.04 9.70L208.04 9.70Q208.26 9.18 208.42 8.79L208.42 8.79L208.42 8.79Q208.59 8.40 208.71 8.04L208.71 8.04L208.71 8.04Q208.84 7.69 208.94 7.33L208.94 7.33L208.94 7.33Q209.05 6.97 209.16 6.51L209.16 6.51L209.16 6.51Q208.52 6.73 207.96 7.01L207.96 7.01L207.96 7.01Q207.41 7.28 207.05 7.59L207.05 7.59L207.05 7.59Q206.92 7.50 206.79 7.34L206.79 7.34L206.79 7.34Q206.65 7.17 206.54 6.96L206.54 6.96L206.54 6.96Q206.43 6.76 206.35 6.55L206.35 6.55L206.35 6.55Q206.26 6.34 206.25 6.17L206.25 6.17L206.25 6.17Q206.67 5.89 207.28 5.66L207.28 5.66L207.28 5.66Q207.89 5.42 208.57 5.24L208.57 5.24L208.57 5.24Q209.26 5.07 209.97 4.97L209.97 4.97L209.97 4.97Q210.69 4.87 211.30 4.87L211.30 4.87L211.30 4.87Q212.98 4.87 213.91 5.56L213.91 5.56L213.91 5.56Q214.83 6.26 214.83 7.46ZM211.25 6.02L211.41 6.29L211.41 6.29Q211.32 6.41 211.11 6.79L211.11 6.79L211.11 6.79Q210.90 7.17 210.62 7.69L210.62 7.69L210.62 7.69Q210.35 8.22 210.05 8.83L210.05 8.83L210.05 8.83Q209.75 9.45 209.47 10.05L209.47 10.05L209.47 10.05Q210.52 10.05 211.40 9.86L211.40 9.86L211.40 9.86Q212.28 9.66 212.93 9.30L212.93 9.30L212.93 9.30Q213.57 8.95 213.93 8.46L213.93 8.46L213.93 8.46Q214.28 7.98 214.28 7.39L214.28 7.39L214.28 7.39Q214.28 6.69 213.78 6.32L213.78 6.32L213.78 6.32Q213.28 5.95 212.23 5.95L212.23 5.95L212.23 5.95Q211.99 5.95 211.75 5.97L211.75 5.97L211.75 5.97Q211.51 5.99 211.25 6.02L211.25 6.02ZM238.10 9.21L238.10 9.21L238.10 9.21Q238.56 9.21 238.82 9.46L238.82 9.46L238.82 9.46Q239.08 9.72 239.08 10.16L239.08 10.16L239.08 10.16Q239.08 10.28 239.06 10.39L239.06 10.39L239.06 10.39Q239.04 10.51 239.01 10.60L239.01 10.60L239.01 10.60Q238.83 10.57 238.60 10.55L238.60 10.55L238.60 10.55Q238.38 10.53 238.07 10.53L238.07 10.53L238.07 10.53Q237.47 10.53 236.85 10.63L236.85 10.63L236.85 10.63Q236.24 10.74 235.68 10.81L235.68 10.81L235.68 10.81Q235.35 11.55 235.09 12.24L235.09 12.24L235.09 12.24Q234.82 12.94 234.63 13.51L234.63 13.51L234.63 13.51Q234.44 14.08 234.34 14.50L234.34 14.50L234.34 14.50Q234.23 14.92 234.22 15.13L234.22 15.13L234.22 15.13Q235.35 14.90 236.51 14.73L236.51 14.73L236.51 14.73Q237.66 14.56 238.94 14.48L238.94 14.48L238.94 14.48Q239.09 14.71 239.20 14.99L239.20 14.99L239.20 14.99Q239.30 15.27 239.30 15.60L239.30 15.60L239.30 15.60Q239.30 15.68 239.30 15.78L239.30 15.78L239.30 15.78Q239.30 15.88 239.27 15.97L239.27 15.97L239.27 15.97Q238.88 15.96 238.45 15.95L238.45 15.95L238.45 15.95Q238.01 15.95 237.31 15.95L237.31 15.95L237.31 15.95Q236.85 15.95 236.44 15.97L236.44 15.97L236.44 15.97Q236.03 15.99 235.61 16.03L235.61 16.03L235.61 16.03Q235.19 16.07 234.72 16.14L234.72 16.14L234.72 16.14Q234.25 16.21 233.66 16.31L233.66 16.31L233.66 16.31Q233.02 16.06 232.41 15.08L232.41 15.08L232.41 15.08Q232.65 14.57 233.08 13.54L233.08 13.54L233.08 13.54Q233.51 12.52 234.16 10.79L234.16 10.79L234.16 10.79Q233.53 10.60 233.34 10.09L233.34 10.09L233.34 10.09Q233.41 10.02 233.74 9.92L233.74 9.92L233.74 9.92Q234.08 9.81 234.57 9.70L234.57 9.70L234.57 9.70Q234.78 9.16 234.93 8.75L234.93 8.75L234.93 8.75Q235.07 8.34 235.19 7.99L235.19 7.99L235.19 7.99Q235.30 7.63 235.39 7.29L235.39 7.29L235.39 7.29Q235.48 6.94 235.56 6.54L235.56 6.54L235.56 6.54Q235.07 6.51 234.79 6.27L234.79 6.27L234.79 6.27Q234.51 6.02 234.51 5.63L234.51 5.63L234.51 5.63Q234.51 5.52 234.55 5.36L234.55 5.36L234.55 5.36Q234.58 5.21 234.63 5.10L234.63 5.10L234.63 5.10Q234.91 5.14 235.16 5.15L235.16 5.15L235.16 5.15Q235.42 5.17 235.84 5.17L235.84 5.17L235.84 5.17Q236.73 5.17 237.50 5.12L237.50 5.12L237.50 5.12Q238.27 5.07 238.89 5.01L238.89 5.01L238.89 5.01Q239.51 4.96 239.96 4.91L239.96 4.91L239.96 4.91Q240.41 4.86 240.65 4.86L240.65 4.86L240.65 4.86Q240.97 4.86 241.22 5.19L241.22 5.19L241.22 5.19Q241.47 5.53 241.60 6.15L241.60 6.15L241.60 6.15Q241.16 6.10 240.89 6.09L240.89 6.09L240.89 6.09Q240.62 6.08 240.41 6.08L240.41 6.08L240.41 6.08Q239.64 6.08 239.00 6.15L239.00 6.15L239.00 6.15Q238.36 6.23 237.78 6.31L237.78 6.31L237.78 6.31Q237.69 6.44 237.59 6.64L237.59 6.64L237.59 6.64Q237.48 6.83 237.31 7.18L237.31 7.18L237.31 7.18Q237.15 7.53 236.90 8.06L236.90 8.06L236.90 8.06Q236.66 8.60 236.31 9.39L236.31 9.39L236.31 9.39Q236.84 9.31 237.31 9.26L237.31 9.26L237.31 9.26Q237.78 9.21 238.10 9.21ZM252.29 16.07L252.29 16.07L252.29 16.07Q251.97 16.24 251.61 16.24L251.61 16.24L251.61 16.24Q251.16 16.18 250.75 16.02L250.75 16.02L250.75 16.02Q250.33 15.85 250.14 15.61L250.14 15.61L250.14 15.61Q250.03 14.92 249.96 14.35L249.96 14.35L249.96 14.35Q249.89 13.78 249.84 13.27L249.84 13.27L249.84 13.27Q249.80 12.75 249.79 12.29L249.79 12.29L249.79 12.29Q249.77 11.82 249.77 11.34L249.77 11.34L249.77 11.34Q249.77 10.71 249.79 10.01L249.79 10.01L249.79 10.01Q249.80 9.31 249.82 8.52L249.82 8.52L249.82 8.52Q249.84 7.73 249.86 6.82L249.86 6.82L249.86 6.82Q249.87 5.92 249.87 4.86L249.87 4.86L249.87 4.86Q250.05 4.86 250.42 4.96L250.42 4.96L250.42 4.96Q250.78 5.07 251.14 5.21L251.14 5.21L251.14 5.21Q251.50 5.35 251.78 5.49L251.78 5.49L251.78 5.49Q252.06 5.64 252.08 5.74L252.08 5.74L252.08 5.74Q251.94 6.13 251.84 6.76L251.84 6.76L251.84 6.76Q251.73 7.39 251.67 8.16L251.67 8.16L251.67 8.16Q251.61 8.93 251.58 9.79L251.58 9.79L251.58 9.79Q251.55 10.64 251.55 11.48L251.55 11.48L251.55 11.48Q251.55 12.11 251.57 12.61L251.57 12.61L251.57 12.61Q251.58 13.10 251.60 13.50L251.60 13.50L251.60 13.50Q251.62 13.90 251.66 14.25L251.66 14.25L251.66 14.25Q251.71 14.59 251.76 14.92L251.76 14.92L251.76 14.92Q252.15 13.73 252.62 12.54L252.62 12.54L252.62 12.54Q253.09 11.35 253.59 10.25L253.59 10.25L253.59 10.25Q254.09 9.16 254.58 8.20L254.58 8.20L254.58 8.20Q255.07 7.25 255.51 6.54L255.51 6.54L255.51 6.54Q255.95 5.84 256.30 5.43L256.30 5.43L256.30 5.43Q256.65 5.01 256.87 4.98L256.87 4.98L256.87 4.98Q257.03 5.01 257.20 5.10L257.20 5.10L257.20 5.10Q257.38 5.19 257.53 5.32L257.53 5.32L257.53 5.32Q257.68 5.45 257.81 5.60L257.81 5.60L257.81 5.60Q257.94 5.75 258.01 5.91L258.01 5.91L258.01 5.91Q257.49 6.09 256.89 6.76L256.89 6.76L256.89 6.76Q256.30 7.43 255.70 8.38L255.70 8.38L255.70 8.38Q255.09 9.32 254.53 10.44L254.53 10.44L254.53 10.44Q253.96 11.55 253.50 12.61L253.50 12.61L253.50 12.61Q253.05 13.68 252.73 14.60L252.73 14.60L252.73 14.60Q252.41 15.53 252.29 16.07ZM269.26 9.21L269.26 9.21L269.26 9.21Q269.72 9.21 269.98 9.46L269.98 9.46L269.98 9.46Q270.24 9.72 270.24 10.16L270.24 10.16L270.24 10.16Q270.24 10.28 270.22 10.39L270.22 10.39L270.22 10.39Q270.20 10.51 270.17 10.60L270.17 10.60L270.17 10.60Q269.99 10.57 269.77 10.55L269.77 10.55L269.77 10.55Q269.54 10.53 269.23 10.53L269.23 10.53L269.23 10.53Q268.63 10.53 268.02 10.63L268.02 10.63L268.02 10.63Q267.40 10.74 266.84 10.81L266.84 10.81L266.84 10.81Q266.52 11.55 266.25 12.24L266.25 12.24L266.25 12.24Q265.99 12.94 265.80 13.51L265.80 13.51L265.80 13.51Q265.61 14.08 265.50 14.50L265.50 14.50L265.50 14.50Q265.40 14.92 265.38 15.13L265.38 15.13L265.38 15.13Q266.52 14.90 267.67 14.73L267.67 14.73L267.67 14.73Q268.83 14.56 270.10 14.48L270.10 14.48L270.10 14.48Q270.26 14.71 270.36 14.99L270.36 14.99L270.36 14.99Q270.47 15.27 270.47 15.60L270.47 15.60L270.47 15.60Q270.47 15.68 270.47 15.78L270.47 15.78L270.47 15.78Q270.47 15.88 270.44 15.97L270.44 15.97L270.44 15.97Q270.05 15.96 269.61 15.95L269.61 15.95L269.61 15.95Q269.18 15.95 268.48 15.95L268.48 15.95L268.48 15.95Q268.02 15.95 267.60 15.97L267.60 15.97L267.60 15.97Q267.19 15.99 266.77 16.03L266.77 16.03L266.77 16.03Q266.35 16.07 265.88 16.14L265.88 16.14L265.88 16.14Q265.41 16.21 264.82 16.31L264.82 16.31L264.82 16.31Q264.18 16.06 263.58 15.08L263.58 15.08L263.58 15.08Q263.82 14.57 264.24 13.54L264.24 13.54L264.24 13.54Q264.67 12.52 265.33 10.79L265.33 10.79L265.33 10.79Q264.70 10.60 264.50 10.09L264.50 10.09L264.50 10.09Q264.57 10.02 264.91 9.92L264.91 9.92L264.91 9.92Q265.24 9.81 265.73 9.70L265.73 9.70L265.73 9.70Q265.94 9.16 266.09 8.75L266.09 8.75L266.09 8.75Q266.24 8.34 266.35 7.99L266.35 7.99L266.35 7.99Q266.46 7.63 266.55 7.29L266.55 7.29L266.55 7.29Q266.64 6.94 266.73 6.54L266.73 6.54L266.73 6.54Q266.24 6.51 265.96 6.27L265.96 6.27L265.96 6.27Q265.68 6.02 265.68 5.63L265.68 5.63L265.68 5.63Q265.68 5.52 265.71 5.36L265.71 5.36L265.71 5.36Q265.75 5.21 265.79 5.10L265.79 5.10L265.79 5.10Q266.07 5.14 266.33 5.15L266.33 5.15L266.33 5.15Q266.59 5.17 267.01 5.17L267.01 5.17L267.01 5.17Q267.89 5.17 268.66 5.12L268.66 5.12L268.66 5.12Q269.43 5.07 270.05 5.01L270.05 5.01L270.05 5.01Q270.68 4.96 271.12 4.91L271.12 4.91L271.12 4.91Q271.57 4.86 271.81 4.86L271.81 4.86L271.81 4.86Q272.13 4.86 272.38 5.19L272.38 5.19L272.38 5.19Q272.64 5.53 272.76 6.15L272.76 6.15L272.76 6.15Q272.33 6.10 272.05 6.09L272.05 6.09L272.05 6.09Q271.78 6.08 271.57 6.08L271.57 6.08L271.57 6.08Q270.80 6.08 270.16 6.15L270.16 6.15L270.16 6.15Q269.53 6.23 268.94 6.31L268.94 6.31L268.94 6.31Q268.86 6.44 268.75 6.64L268.75 6.64L268.75 6.64Q268.65 6.83 268.48 7.18L268.48 7.18L268.48 7.18Q268.31 7.53 268.06 8.06L268.06 8.06L268.06 8.06Q267.82 8.60 267.47 9.39L267.47 9.39L267.47 9.39Q268.00 9.31 268.47 9.26L268.47 9.26L268.47 9.26Q268.94 9.21 269.26 9.21ZM288.53 7.46L288.53 7.46L288.53 7.46Q288.53 8.13 288.22 8.73L288.22 8.73L288.22 8.73Q287.92 9.32 287.39 9.79L287.39 9.79L287.39 9.79Q286.86 10.26 286.15 10.58L286.15 10.58L286.15 10.58Q285.43 10.91 284.59 11.02L284.59 11.02L284.59 11.02Q284.80 11.65 285.10 12.31L285.10 12.31L285.10 12.31Q285.40 12.98 285.75 13.59L285.75 13.59L285.75 13.59Q286.10 14.21 286.48 14.73L286.48 14.73L286.48 14.73Q286.86 15.25 287.22 15.58L287.22 15.58L287.22 15.58Q287.15 15.72 287.02 15.86L287.02 15.86L287.02 15.86Q286.89 16.00 286.71 16.12L286.71 16.12L286.71 16.12Q286.54 16.24 286.35 16.32L286.35 16.32L286.35 16.32Q286.16 16.39 285.99 16.39L285.99 16.39L285.99 16.39Q285.68 16.39 285.40 16.10L285.40 16.10L285.40 16.10Q285.12 15.81 284.84 15.17L284.84 15.17L284.84 15.17Q284.55 14.53 284.23 13.52L284.23 13.52L284.23 13.52Q283.92 12.50 283.54 11.07L283.54 11.07L283.54 11.07Q283.39 11.07 283.23 11.07L283.23 11.07L283.23 11.07Q283.08 11.07 283.00 11.05L283.00 11.05L283.00 11.05Q282.90 10.99 282.79 10.85L282.79 10.85L282.79 10.85Q282.41 11.66 282.11 12.38L282.11 12.38L282.11 12.38Q281.82 13.09 281.59 13.76L281.59 13.76L281.59 13.76Q281.36 14.42 281.18 15.04L281.18 15.04L281.18 15.04Q281.01 15.67 280.88 16.31L280.88 16.31L280.88 16.31Q280.41 16.20 280.06 15.90L280.06 15.90L280.06 15.90Q279.71 15.61 279.40 15.08L279.40 15.08L279.40 15.08Q279.45 14.95 279.52 14.83L279.52 14.83L279.52 14.83Q279.58 14.71 279.68 14.50L279.68 14.50L279.68 14.50Q279.78 14.28 279.92 13.94L279.92 13.94L279.92 13.94Q280.07 13.61 280.31 13.05L280.31 13.05L280.31 13.05Q280.56 12.49 280.90 11.68L280.90 11.68L280.90 11.68Q281.25 10.86 281.74 9.70L281.74 9.70L281.74 9.70Q281.96 9.18 282.12 8.79L282.12 8.79L282.12 8.79Q282.28 8.40 282.41 8.04L282.41 8.04L282.41 8.04Q282.53 7.69 282.64 7.33L282.64 7.33L282.64 7.33Q282.74 6.97 282.86 6.51L282.86 6.51L282.86 6.51Q282.21 6.73 281.66 7.01L281.66 7.01L281.66 7.01Q281.11 7.28 280.74 7.59L280.74 7.59L280.74 7.59Q280.62 7.50 280.48 7.34L280.48 7.34L280.48 7.34Q280.35 7.17 280.24 6.96L280.24 6.96L280.24 6.96Q280.13 6.76 280.04 6.55L280.04 6.55L280.04 6.55Q279.96 6.34 279.94 6.17L279.94 6.17L279.94 6.17Q280.36 5.89 280.97 5.66L280.97 5.66L280.97 5.66Q281.58 5.42 282.27 5.24L282.27 5.24L282.27 5.24Q282.95 5.07 283.67 4.97L283.67 4.97L283.67 4.97Q284.38 4.87 285.00 4.87L285.00 4.87L285.00 4.87Q286.68 4.87 287.60 5.56L287.60 5.56L287.60 5.56Q288.53 6.26 288.53 7.46ZM284.94 6.02L285.11 6.29L285.11 6.29Q285.01 6.41 284.80 6.79L284.80 6.79L284.80 6.79Q284.59 7.17 284.32 7.69L284.32 7.69L284.32 7.69Q284.05 8.22 283.75 8.83L283.75 8.83L283.75 8.83Q283.44 9.45 283.16 10.05L283.16 10.05L283.16 10.05Q284.21 10.05 285.10 9.86L285.10 9.86L285.10 9.86Q285.98 9.66 286.62 9.30L286.62 9.30L286.62 9.30Q287.27 8.95 287.62 8.46L287.62 8.46L287.62 8.46Q287.98 7.98 287.98 7.39L287.98 7.39L287.98 7.39Q287.98 6.69 287.48 6.32L287.48 6.32L287.48 6.32Q286.97 5.95 285.92 5.95L285.92 5.95L285.92 5.95Q285.68 5.95 285.45 5.97L285.45 5.97L285.45 5.97Q285.21 5.99 284.94 6.02L284.94 6.02ZM300.10 10.35L300.10 10.35L300.10 10.35Q301.15 9.20 301.99 7.91L301.99 7.91L301.99 7.91Q302.82 6.62 303.53 5.01L303.53 5.01L303.53 5.01Q303.90 5.05 304.23 5.21L304.23 5.21L304.23 5.21Q304.57 5.36 304.77 5.56L304.77 5.56L304.77 5.56Q304.00 6.48 303.37 7.24L303.37 7.24L303.37 7.24Q302.75 7.99 302.23 8.66L302.23 8.66L302.23 8.66Q301.71 9.32 301.27 9.93L301.27 9.93L301.27 9.93Q300.83 10.54 300.41 11.16L300.41 11.16L300.41 11.16Q300.20 11.87 300.02 12.60L300.02 12.60L300.02 12.60Q299.84 13.33 299.70 13.99L299.70 13.99L299.70 13.99Q299.56 14.66 299.48 15.22L299.48 15.22L299.48 15.22Q299.40 15.79 299.40 16.20L299.40 16.20L299.40 16.20Q299.25 16.20 298.91 16.14L298.91 16.14L298.91 16.14Q298.58 16.07 298.23 15.99L298.23 15.99L298.23 15.99Q297.88 15.90 297.59 15.82L297.59 15.82L297.59 15.82Q297.30 15.74 297.25 15.68L297.25 15.68L297.25 15.68Q297.47 15.30 297.69 14.75L297.69 14.75L297.69 14.75Q297.91 14.20 298.12 13.59L298.12 13.59L298.12 13.59Q298.33 12.98 298.52 12.36L298.52 12.36L298.52 12.36Q298.72 11.73 298.89 11.20L298.89 11.20L298.89 11.20Q298.54 10.11 298.21 9.15L298.21 9.15L298.21 9.15Q297.88 8.19 297.57 7.41L297.57 7.41L297.57 7.41Q297.26 6.64 296.98 6.08L296.98 6.08L296.98 6.08Q296.70 5.52 296.45 5.22L296.45 5.22L296.45 5.22Q296.59 5.17 296.88 5.11L296.88 5.11L296.88 5.11Q297.16 5.05 297.51 5.00L297.51 5.00L297.51 5.00Q297.85 4.94 298.21 4.91L298.21 4.91L298.21 4.91Q298.56 4.87 298.84 4.86L298.84 4.86L298.84 4.86Q298.84 5.21 298.91 5.71L298.91 5.71L298.91 5.71Q298.97 6.22 299.07 6.79L299.07 6.79L299.07 6.79Q299.18 7.36 299.32 7.95L299.32 7.95L299.32 7.95Q299.46 8.54 299.60 9.03L299.60 9.03L299.60 9.03Q299.74 9.52 299.87 9.88L299.87 9.88L299.87 9.88Q300.01 10.23 300.10 10.35ZM316.75 4.98L316.75 4.98L316.75 4.98Q317.02 5.10 317.30 5.27L317.30 5.27L317.30 5.27Q317.58 5.45 317.81 5.63L317.81 5.63L317.81 5.63Q318.05 5.81 318.21 5.98L318.21 5.98L318.21 5.98Q318.37 6.16 318.39 6.27L318.39 6.27L318.39 6.27Q318.15 6.22 317.91 6.20L317.91 6.20L317.91 6.20Q317.67 6.17 317.48 6.17L317.48 6.17L317.48 6.17Q316.85 6.17 316.22 6.48L316.22 6.48L316.22 6.48Q315.60 6.79 315.04 7.32L315.04 7.32L315.04 7.32Q314.48 7.85 314.01 8.57L314.01 8.57L314.01 8.57Q313.53 9.28 313.19 10.09L313.19 10.09L313.19 10.09Q312.84 10.91 312.65 11.77L312.65 11.77L312.65 11.77Q312.45 12.64 312.45 13.48L312.45 13.48L312.45 13.48Q312.45 14.57 312.82 15.11L312.82 15.11L312.82 15.11Q313.18 15.64 313.88 15.64L313.88 15.64L313.88 15.64Q314.22 15.64 314.61 15.51L314.61 15.51L314.61 15.51Q315.00 15.37 315.41 15.13L315.41 15.13L315.41 15.13Q315.81 14.90 316.20 14.56L316.20 14.56L316.20 14.56Q316.60 14.22 316.93 13.82L316.93 13.82L316.93 13.82Q317.42 13.23 317.81 12.48L317.81 12.48L317.81 12.48Q318.21 11.73 318.48 10.89L318.48 10.89L318.48 10.89Q318.75 10.05 318.90 9.16L318.90 9.16L318.90 9.16Q319.05 8.27 319.05 7.42L319.05 7.42L319.05 7.42Q319.05 7.08 319.03 6.85L319.03 6.85L319.03 6.85Q319.02 6.62 319.00 6.46L319.00 6.46L319.00 6.46Q318.98 6.30 318.96 6.20L318.96 6.20L318.96 6.20Q318.95 6.10 318.93 6.03L318.93 6.03L318.93 6.03Q319.10 6.12 319.30 6.24L319.30 6.24L319.30 6.24Q319.51 6.36 319.68 6.59L319.68 6.59L319.68 6.59Q319.86 6.82 319.98 7.20L319.98 7.20L319.98 7.20Q320.10 7.57 320.10 8.18L320.10 8.18L320.10 8.18Q320.10 9.16 319.86 10.10L319.86 10.10L319.86 10.10Q319.63 11.05 319.22 11.90L319.22 11.90L319.22 11.90Q318.81 12.75 318.25 13.50L318.25 13.50L318.25 13.50Q317.69 14.24 317.04 14.80L317.04 14.80L317.04 14.80Q316.20 15.54 315.25 15.95L315.25 15.95L315.25 15.95Q314.30 16.35 313.42 16.35L313.42 16.35L313.42 16.35Q312.13 16.35 311.45 15.53L311.45 15.53L311.45 15.53Q310.77 14.71 310.77 13.12L310.77 13.12L310.77 13.12Q310.77 12.26 310.96 11.31L310.96 11.31L310.96 11.31Q311.15 10.36 311.49 9.44L311.49 9.44L311.49 9.44Q311.84 8.51 312.31 7.68L312.31 7.68L312.31 7.68Q312.79 6.85 313.35 6.21L313.35 6.21L313.35 6.21Q313.92 5.57 314.57 5.19L314.57 5.19L314.57 5.19Q315.22 4.82 315.91 4.82L315.91 4.82L315.91 4.82Q316.13 4.82 316.33 4.85L316.33 4.85L316.33 4.85Q316.53 4.89 316.75 4.98ZM328.66 16.24L328.66 16.24L328.66 16.24Q327.87 16.00 327.59 15.79L327.59 15.79L327.59 15.79Q327.31 15.57 327.31 15.19L327.31 15.19L327.31 15.19Q327.31 14.77 327.50 14.01L327.50 14.01L327.50 14.01Q327.70 13.24 328.01 12.31L328.01 12.31L328.01 12.31Q328.33 11.37 328.73 10.35L328.73 10.35L328.73 10.35Q329.14 9.32 329.56 8.39L329.56 8.39L329.56 8.39Q329.98 7.45 330.38 6.67L330.38 6.67L330.38 6.67Q330.78 5.89 331.09 5.46L331.09 5.46L330.99 4.87L330.99 4.87Q331.18 4.87 331.53 4.97L331.53 4.97L331.53 4.97Q331.88 5.07 332.24 5.21L332.24 5.21L332.24 5.21Q332.60 5.35 332.87 5.49L332.87 5.49L332.87 5.49Q333.14 5.64 333.17 5.74L333.17 5.74L333.17 5.74Q333.10 6.08 333.06 6.76L333.06 6.76L333.06 6.76Q333.02 7.43 333.02 8.20L333.02 8.20L333.02 8.20Q333.02 9.73 333.14 11.19L333.14 11.19L333.14 11.19Q333.26 12.66 333.69 14.17L333.69 14.17L333.69 14.17Q333.91 13.05 334.17 11.94L334.17 11.94L334.17 11.94Q334.43 10.82 334.71 9.81L334.71 9.81L334.71 9.81Q334.99 8.79 335.27 7.92L335.27 7.92L335.27 7.92Q335.55 7.06 335.81 6.40L335.81 6.40L335.81 6.40Q336.07 5.75 336.29 5.38L336.29 5.38L336.29 5.38Q336.52 5.01 336.70 4.98L336.70 4.98L336.70 4.98Q336.85 5.01 337.04 5.10L337.04 5.10L337.04 5.10Q337.22 5.19 337.39 5.32L337.39 5.32L337.39 5.32Q337.55 5.45 337.69 5.60L337.69 5.60L337.69 5.60Q337.83 5.75 337.92 5.91L337.92 5.91L337.92 5.91Q337.47 6.09 337.03 6.76L337.03 6.76L337.03 6.76Q336.59 7.43 336.19 8.39L336.19 8.39L336.19 8.39Q335.79 9.35 335.45 10.47L335.45 10.47L335.45 10.47Q335.10 11.59 334.84 12.68L334.84 12.68L334.84 12.68Q334.59 13.76 334.44 14.69L334.44 14.69L334.44 14.69Q334.29 15.61 334.28 16.17L334.28 16.17L334.28 16.17Q334.28 16.20 334.29 16.21L334.29 16.21L334.29 16.21Q334.25 16.23 334.20 16.23L334.20 16.23L334.20 16.23Q334.15 16.23 334.11 16.23L334.11 16.23L334.11 16.23Q333.47 16.23 332.97 16.07L332.97 16.07L332.97 16.07Q332.47 15.90 332.32 15.61L332.32 15.61L332.32 15.61Q332.02 14.43 331.83 13.34L331.83 13.34L331.83 13.34Q331.63 12.25 331.50 11.16L331.50 11.16L331.50 11.16Q331.37 10.07 331.29 8.95L331.29 8.95L331.29 8.95Q331.21 7.84 331.17 6.62L331.17 6.62L331.17 6.62Q330.90 7.04 330.61 7.72L330.61 7.72L330.61 7.72Q330.32 8.40 330.04 9.21L330.04 9.21L330.04 9.21Q329.76 10.02 329.50 10.92L329.50 10.92L329.50 10.92Q329.24 11.82 329.04 12.67L329.04 12.67L329.04 12.67Q328.85 13.52 328.73 14.29L328.73 14.29L328.73 14.29Q328.62 15.05 328.62 15.61L328.62 15.61L328.62 15.61Q328.62 15.90 328.63 16.03L328.63 16.03L328.63 16.03Q328.64 16.16 328.66 16.24ZM349.76 9.21L349.76 9.21L349.76 9.21Q350.22 9.21 350.48 9.46L350.48 9.46L350.48 9.46Q350.74 9.72 350.74 10.16L350.74 10.16L350.74 10.16Q350.74 10.28 350.72 10.39L350.72 10.39L350.72 10.39Q350.70 10.51 350.67 10.60L350.67 10.60L350.67 10.60Q350.49 10.57 350.27 10.55L350.27 10.55L350.27 10.55Q350.04 10.53 349.73 10.53L349.73 10.53L349.73 10.53Q349.13 10.53 348.52 10.63L348.52 10.63L348.52 10.63Q347.90 10.74 347.34 10.81L347.34 10.81L347.34 10.81Q347.02 11.55 346.75 12.24L346.75 12.24L346.75 12.24Q346.49 12.94 346.30 13.51L346.30 13.51L346.30 13.51Q346.11 14.08 346.00 14.50L346.00 14.50L346.00 14.50Q345.90 14.92 345.88 15.13L345.88 15.13L345.88 15.13Q347.02 14.90 348.17 14.73L348.17 14.73L348.17 14.73Q349.33 14.56 350.60 14.48L350.60 14.48L350.60 14.48Q350.76 14.71 350.86 14.99L350.86 14.99L350.86 14.99Q350.97 15.27 350.97 15.60L350.97 15.60L350.97 15.60Q350.97 15.68 350.97 15.78L350.97 15.78L350.97 15.78Q350.97 15.88 350.94 15.97L350.94 15.97L350.94 15.97Q350.55 15.96 350.11 15.95L350.11 15.95L350.11 15.95Q349.68 15.95 348.98 15.95L348.98 15.95L348.98 15.95Q348.52 15.95 348.10 15.97L348.10 15.97L348.10 15.97Q347.69 15.99 347.27 16.03L347.27 16.03L347.27 16.03Q346.85 16.07 346.38 16.14L346.38 16.14L346.38 16.14Q345.91 16.21 345.32 16.31L345.32 16.31L345.32 16.31Q344.68 16.06 344.08 15.08L344.08 15.08L344.08 15.08Q344.32 14.57 344.74 13.54L344.74 13.54L344.74 13.54Q345.17 12.52 345.83 10.79L345.83 10.79L345.83 10.79Q345.20 10.60 345.00 10.09L345.00 10.09L345.00 10.09Q345.07 10.02 345.41 9.92L345.41 9.92L345.41 9.92Q345.74 9.81 346.23 9.70L346.23 9.70L346.23 9.70Q346.44 9.16 346.59 8.75L346.59 8.75L346.59 8.75Q346.74 8.34 346.85 7.99L346.85 7.99L346.85 7.99Q346.96 7.63 347.05 7.29L347.05 7.29L347.05 7.29Q347.14 6.94 347.23 6.54L347.23 6.54L347.23 6.54Q346.74 6.51 346.46 6.27L346.46 6.27L346.46 6.27Q346.18 6.02 346.18 5.63L346.18 5.63L346.18 5.63Q346.18 5.52 346.21 5.36L346.21 5.36L346.21 5.36Q346.25 5.21 346.29 5.10L346.29 5.10L346.29 5.10Q346.57 5.14 346.83 5.15L346.83 5.15L346.83 5.15Q347.09 5.17 347.51 5.17L347.51 5.17L347.51 5.17Q348.39 5.17 349.16 5.12L349.16 5.12L349.16 5.12Q349.93 5.07 350.55 5.01L350.55 5.01L350.55 5.01Q351.18 4.96 351.62 4.91L351.62 4.91L351.62 4.91Q352.07 4.86 352.31 4.86L352.31 4.86L352.31 4.86Q352.63 4.86 352.88 5.19L352.88 5.19L352.88 5.19Q353.14 5.53 353.26 6.15L353.26 6.15L353.26 6.15Q352.83 6.10 352.55 6.09L352.55 6.09L352.55 6.09Q352.28 6.08 352.07 6.08L352.07 6.08L352.07 6.08Q351.30 6.08 350.66 6.15L350.66 6.15L350.66 6.15Q350.03 6.23 349.44 6.31L349.44 6.31L349.44 6.31Q349.36 6.44 349.25 6.64L349.25 6.64L349.25 6.64Q349.15 6.83 348.98 7.18L348.98 7.18L348.98 7.18Q348.81 7.53 348.56 8.06L348.56 8.06L348.56 8.06Q348.32 8.60 347.97 9.39L347.97 9.39L347.97 9.39Q348.50 9.31 348.97 9.26L348.97 9.26L348.97 9.26Q349.44 9.21 349.76 9.21Z"></path></g></svg>